HIERARCHY
ROOT Hips
{
  OFFSET 0 89.5177 0.535
  CHANNELS 6 Xposition Yposition Zposition Zrotation Xrotation Yrotation
  JOINT Spine
  {
    OFFSET 12.0259 -0.162855 1.69034e-005
    CHANNELS 3 Zrotation Xrotation Yrotation
    JOINT Spine1
    {
      OFFSET 15.3169 -0.0121922 0
      CHANNELS 3 Zrotation Xrotation Yrotation
      JOINT Spine2
      {
        OFFSET 15.3176 -0.0121908 0
        CHANNELS 3 Zrotation Xrotation Yrotation
        JOINT Neck
        {
          OFFSET 19.9142 1.56338 0
          CHANNELS 3 Zrotation Xrotation Yrotation
          JOINT Head
          {
            OFFSET 6.92651 0 0
            CHANNELS 3 Zrotation Xrotation Yrotation
            End Site
            {
              OFFSET 20.7666 0 0
            }
          }
          JOINT LeftShoulder
          {
            OFFSET -6.20654 0.708824 7.28219
            CHANNELS 3 Zrotation Xrotation Yrotation
            JOINT LeftArm
            {
              OFFSET 14.108 0 -1.52588e-005
              CHANNELS 3 Zrotation Xrotation Yrotation
              JOINT LeftForeArm
              {
                OFFSET 28.5802 0 0
                CHANNELS 3 Zrotation Xrotation Yrotation
                JOINT LeftHand
                {
                  OFFSET 27.092 0 0
                  CHANNELS 3 Zrotation Xrotation Yrotation
                  End Site
                  {
                    OFFSET 9.55928 -0.186424 0.145352
                  }
                }
              }
            }
          }
          JOINT RightShoulder
          {
            OFFSET -6.20654 0.708866 -7.28218
            CHANNELS 3 Zrotation Xrotation Yrotation
            JOINT RightArm
            {
              OFFSET 14.108 0 1.52588e-005
              CHANNELS 3 Zrotation Xrotation Yrotation
              JOINT RightForeArm
              {
                OFFSET 28.5802 0 0
                CHANNELS 3 Zrotation Xrotation Yrotation
                JOINT RightHand
                {
                  OFFSET 27.092 0 0
                  CHANNELS 3 Zrotation Xrotation Yrotation
                  End Site
                  {
                    OFFSET 9.55929 -0.186417 -0.145354
                  }
                }
              }
            }
          }
        }
      }
    }
  }
  JOINT LeftUpLeg
  {
    OFFSET 0.005 -0.535 8.837
    CHANNELS 3 Zrotation Xrotation Yrotation
    JOINT LeftLeg
    {
      OFFSET 39.9035 0 0
      CHANNELS 3 Zrotation Xrotation Yrotation
      JOINT LeftFoot
      {
        OFFSET 39.6689 0 0
        CHANNELS 3 Zrotation Xrotation Yrotation
        JOINT LeftToe
        {
          OFFSET 10.1624 13.6296 0
          CHANNELS 3 Zrotation Xrotation Yrotation
          End Site
          {
            OFFSET 8.38147 0 0
          }
        }
      }
    }
  }
  JOINT RightUpLeg
  {
    OFFSET 0.005 -0.535 -8.837
    CHANNELS 3 Zrotation Xrotation Yrotation
    JOINT RightLeg
    {
      OFFSET 39.9035 0 0
      CHANNELS 3 Zrotation Xrotation Yrotation
      JOINT RightFoot
      {
        OFFSET 39.6689 0 0
        CHANNELS 3 Zrotation Xrotation Yrotation
        JOINT RightToe
        {
          OFFSET 10.1624 13.6296 0
          CHANNELS 3 Zrotation Xrotation Yrotation
          End Site
          {
            OFFSET 8.38147 0 0
          }
        }
      }
    }
  }
}
MOTION
Frames:	17
Frame Time:	0.0333333
115.244 83.5902 -28.0332 -68.6706 -46.8543 -157.009 3.49995 1.02466 -1.42615 7.02587 1.96049 -2.91273 7.02587 1.96049 -2.91274 -8.30669e-012 -9.0191e-006 -5.27751e-005 -3.00818 -0.369167 10.7549 -179.354 -7.47322 -85.0456 -3.85664 -56.3184 31.3289 -80.021 -4.77083e-015 3.18055e-015 -77.9653 -42.4422 -79.1768 178.194 28.2142 93.8159 -130.79 44.6433 54.2258 -71.2738 -1.59028e-015 3.18055e-015 -62.9942 22.2725 51.24 -5.57445 2.01309 -174.339 -49.465 6.36111e-015 -0 17.3739 3.74983 -10.9464 90 7.95139e-016 -9.54166e-015 1.01407 -10.7409 158.262 -39.9942 -3.18056e-015 9.54167e-015 28.6658 -3.71086 12.0518 90 -6.06643e-021 1.27222e-014 
114.659 84.3482 -30.5543 -67.9747 -49.1256 -154.826 3.10253 1.15335 -1.65915 6.23891 2.21518 -3.37913 6.23891 2.21518 -3.37914 -8.30708e-012 -9.0191e-006 -5.27751e-005 -4.87782 -3.1408 11.5713 -179.372 -7.75885 -85.3571 -6.23419 -56.1504 29.8689 -77.6806 0 -3.18055e-015 -78.378 -42.8178 -79.9245 177.873 28.9439 94.3886 -134.134 42.985 56.9038 -63.4282 0 -0 -63.5822 20.6477 49.4777 -3.06654 2.6558 -177.241 -45.4971 9.54166e-015 1.11319e-014 17.9429 4.90238 -9.07665 90 2.38542e-015 -1.27222e-014 4.32238 -10.9014 157.06 -36.653 3.18056e-015 3.18056e-015 28.4073 -0.994365 8.09227 90 1.59028e-015 -1.27222e-014 
114.046 85.9773 -32.7561 -67.5659 -51.7891 -152.709 2.66532 1.26744 -1.98907 5.37488 2.44071 -4.0362 5.37488 2.44071 -4.03621 -8.30749e-012 -9.0191e-006 -5.27751e-005 -6.31918 -5.62425 12.0596 -179.405 -7.82299 -85.6358 -7.99481 -55.3319 28.905 -75.8462 0 -0 -78.4444 -42.7795 -80.0437 177.926 29.67 94.1838 -136.974 40.4747 59.2254 -55.4541 -1.59028e-015 3.18055e-015 -62.8927 19.6384 46.8241 -0.847554 2.37264 179.65 -40.3987 -3.18055e-015 -1.59028e-015 14.9363 5.68516 -7.28685 90 -1.59028e-015 3.18055e-015 7.93565 -12.0367 157.078 -31.394 3.18056e-015 -0 26.8133 2.48847 -1.59868 90 1.59028e-015 -3.18055e-015 
113.547 88.0296 -34.7955 -66.9792 -54.206 -151.326 2.30952 1.33518 -2.16992 4.66974 2.58133 -4.39343 4.66974 2.58133 -4.39344 -8.30708e-012 -9.0191e-006 -5.27751e-005 -7.63544 -7.13472 12.0318 -179.398 -7.95438 -85.6571 -8.8902 -53.9979 27.9676 -74.7459 0 3.18055e-015 -78.3965 -43.1208 -80.063 178.001 30.2319 93.9664 -140.138 37.9577 61.3581 -48.0299 -6.36111e-015 3.18055e-015 -62.2709 18.6046 44.4079 1.73868 -0.249307 177.512 -34.4922 0 7.95139e-015 10.3422 6.24498 -6.31528 90 7.95139e-016 3.18055e-015 8.70157 -14.1066 156.596 -29.2899 9.54167e-015 -3.18056e-015 20.7443 4.41687 -4.23085 90 0 -9.54166e-015 
113.297 90.2851 -36.4488 -66.0376 -56.3369 -150.37 2.03836 1.33195 -2.17627 4.12743 2.58514 -4.40009 4.12743 2.58514 -4.4001 -8.30708e-012 -9.0191e-006 -5.27751e-005 -8.61901 -7.70859 11.657 -179.361 -8.20384 -85.5308 -8.76205 -52.4296 27.5575 -74.209 -4.77083e-015 -6.36111e-015 -78.0486 -43.3898 -79.6067 177.749 30.7733 94.3942 -143.825 36.3404 63.4678 -41.9687 0 -0 -60.7169 18.4336 42.2827 3.74644 -1.30159 176.971 -29.4977 1.27222e-014 1.59028e-015 4.76079 6.71359 -7.95192 90 1.59028e-015 -9.54166e-015 7.71699 -17.6478 156.254 -28.2972 -6.36111e-015 3.18056e-015 12.77 4.53259 -3.10336 90 -3.18055e-015 3.18055e-015 
113.263 92.4066 -37.5037 -65.4646 -58.7624 -150.843 1.76476 1.28914 -1.97883 3.5743 2.51641 -3.99773 3.5743 2.51641 -3.99774 -8.30788e-012 -9.0191e-006 -5.27751e-005 -9.62285 -8.01712 11.4945 -179.322 -8.42383 -85.3818 -8.6073 -51.5864 27.2976 -74.3925 -4.77083e-015 -3.18055e-015 -78.329 -44.0909 -80.2379 177.862 31.4264 94.095 -146.561 34.3866 65.3229 -37.6837 -3.18055e-015 -3.18055e-015 -58.5693 18.6802 40.2589 4.67632 -1.93582 178.148 -25.2582 3.18055e-015 -7.95139e-016 -0.854657 7.53887 -10.3036 90 0 -6.36111e-015 8.24593 -19.1597 158.344 -25.652 -6.36111e-015 -0 3.86507 0.987087 3.90211 90 6.36111e-015 -1.27222e-014 
113.212 94.0678 -38.1638 -65.5224 -60.7174 -151.94 1.55126 1.34099 -1.79993 3.14514 2.63256 -3.6368 3.14514 2.63256 -3.63681 -8.30788e-012 -9.0191e-006 -5.27751e-005 -10.8406 -8.18143 11.5462 -179.313 -8.39231 -85.301 -8.81626 -50.9238 26.5371 -74.8939 4.77083e-015 -6.36111e-015 -78.7615 -43.483 -80.6606 178.023 32.6168 93.6652 -149.342 33.3447 67.0948 -35.954 6.36111e-015 -3.18055e-015 -57.2991 18.5699 38.7171 4.89299 -2.75353 179.429 -22.0267 6.36111e-015 4.77083e-015 -5.76921 8.27584 -12.2667 90 0 9.54166e-015 10.8351 -16.2278 162.05 -21.2817 9.54167e-015 6.36111e-015 -4.37263 -3.4088 10.1099 90 -3.18055e-015 -0 
113.085 95.0831 -38.7313 -65.1999 -62.3647 -152.011 1.4375 1.34331 -1.7693 2.91698 2.64162 -3.57303 2.91698 2.64162 -3.57304 -8.30867e-012 -9.0191e-006 -5.27751e-005 -11.755 -7.60693 11.6785 -179.334 -8.49849 -85.5044 -8.8671 -50.5738 26.1091 -75.6408 -3.18055e-015 3.18055e-015 -79.0528 -43.9544 -81.2114 178.392 33.2513 92.9304 -151.081 32.5313 68.5103 -36.3349 0 1.59028e-015 -56.7201 18.6793 38.4661 5.09366 -3.74425 179.864 -19.7138 3.18055e-015 -1.59028e-015 -9.14508 8.70365 -13.3201 90 -1.59028e-015 -3.18055e-015 12.9582 -12.5073 165.115 -18.6428 0 -4.77083e-015 -7.07846 -5.78466 8.95787 90 -1.59028e-015 9.54166e-015 
112.942 95.4184 -39.3554 -63.3572 -64.1546 -150.014 1.45036 1.19455 -1.8482 2.93944 2.34178 -3.72708 2.93944 2.34178 -3.72709 -8.30748e-012 -9.0191e-006 -5.27751e-005 -12.3451 -5.65065 11.6276 -179.337 -8.68791 -85.619 -9.25028 -50.3021 25.5304 -76.1894 1.27222e-014 -3.18055e-015 -78.6956 -43.3757 -80.5229 178.573 33.9345 92.5557 -152.406 32.828 69.4459 -39.0929 3.18055e-015 -1.59028e-015 -56.6686 19.5193 39.6507 5.15692 -3.05715 179.691 -19.0456 -9.54166e-015 -0 -10.3154 8.95742 -13.9122 90 0 3.18055e-015 13.1251 -10.4167 166.126 -19.3833 6.36111e-015 3.18056e-015 -7.30543 -5.85398 8.68604 90 0 -3.18055e-015 
112.637 95.0587 -39.9718 -59.9669 -66.4431 -145.967 1.53399 0.905856 -2.03175 3.09969 1.7569 -4.08759 3.09969 1.7569 -4.0876 -8.30788e-012 -9.0191e-006 -5.27751e-005 -13.2458 -2.13478 11.3862 -179.323 -8.73735 -85.5515 -10.1315 -50.0331 24.798 -76.9377 6.36111e-015 6.36111e-015 -78.8174 -43.006 -80.5729 179.096 34.5175 91.5961 -152.393 33.0794 69.5815 -43.2258 0 -3.18055e-015 -56.0774 20.5595 40.6298 4.35111 1.25925 178.951 -20.7065 0 3.18055e-015 -9.15985 8.67775 -13.4798 90 1.59028e-015 3.18055e-015 12.2986 -10.3265 165.986 -22.2438 3.18056e-015 -1.59028e-015 -6.14205 -4.41022 7.39673 90 -1.59028e-015 -1.27222e-014 
112.179 94.0153 -40.468 -54.8689 -68.9448 -140.204 1.69255 0.594843 -2.16729 3.40664 1.12547 -4.35137 3.40664 1.12547 -4.35137 -8.30708e-012 -9.0191e-006 -5.27751e-005 -15.0669 3.22996 11.099 -179.264 -8.88836 -85.2443 -11.5621 -49.7523 24.6848 -77.8343 -1.59028e-015 6.36111e-015 -78.6584 -42.9375 -80.3202 179.659 35.3232 90.5898 -150.572 33.5541 69.142 -49.2801 0 7.95139e-016 -55.0282 21.7032 41.1898 2.7077 8.10921 178.249 -24.8958 0 7.95139e-016 -5.91033 7.54357 -11.0551 90 0 -1.59028e-015 10.3515 -12.4515 164.782 -27.9481 0 -0 -3.17085 -2.69722 8.46666 90 0 -0 
111.592 92.3989 -40.8622 -48.0412 -71.0514 -133.15 1.9569 0.410786 -2.15816 3.92801 0.747836 -4.32909 3.92801 0.747836 -4.3291 -8.30768e-012 -9.0191e-006 -5.27751e-005 -17.7504 10.7225 11.2892 -179.191 -9.05013 -84.8711 -13.3467 -49.2279 25.6144 -78.9224 1.59028e-015 -0 -78.0831 -42.8755 -79.532 -179.934 35.7368 89.8865 -145.916 34.4926 68.5713 -57.7322 3.18055e-015 5.56597e-015 -53.2579 23.4414 41.9038 1.0995 14.3547 177.83 -29.851 1.98785e-016 3.23025e-016 -1.30737 5.553 -6.37836 90 6.95746e-016 3.97569e-016 8.76118 -14.8262 163.636 -33.8052 6.36111e-015 -0 1.56197 -1.37362 8.97034 90 -1.59028e-015 -3.18055e-015 
110.909 90.3328 -41.195 -39.4139 -72.4381 -124.403 2.32166 0.373644 -2.1083 4.65561 0.661818 -4.22996 4.65561 0.661818 -4.22997 -8.30768e-012 -9.0191e-006 -5.27751e-005 -20.7733 19.6274 11.9402 -179.158 -9.17709 -84.737 -15.0439 -48.1524 27.9598 -80.412 1.59028e-015 6.36111e-015 -77.5638 -43.2211 -78.9597 -179.671 35.4187 89.4317 -138.397 36.4202 68.0957 -68.2204 3.18055e-015 -0 -51.3612 25.1229 42.4263 0.392615 17.0339 177.018 -33.96 7.95139e-016 -0 4.33811 3.35937 -1.36436 90 -6.95746e-016 -7.95139e-016 7.41723 -16.1686 162.281 -40.3578 0 -0 6.74478 -0.768117 9.34307 90 -3.18055e-015 3.18055e-015 
110.233 88.162 -41.4677 -28.651 -73.2404 -113.647 2.69655 0.300999 -1.93623 5.40182 0.510896 -3.8844 5.40182 0.510895 -3.88441 -8.30758e-012 -9.0191e-006 -5.27751e-005 -23.8611 29.5069 13.212 -179.029 -9.18745 -83.943 -16.6056 -45.8517 30.6389 -81.918 4.77083e-015 -3.18055e-015 -77.4145 -43.1189 -78.7503 -179.775 34.3876 89.6015 -129.797 39.8716 67.119 -79.6867 6.36111e-015 -7.95139e-016 -49.394 26.616 42.4685 0.596687 13.8482 175.812 -36.7667 -7.95139e-016 -3.97569e-016 10.9151 2.18005 1.13458 90 3.97569e-016 -0 6.48493 -16.289 160.962 -47.0214 0 -0 10.1643 -1.25123 11.3448 90 1.59028e-015 -0 
109.696 86.404 -41.6606 -17.6141 -73.7227 -102.46 2.92111 0.24341 -1.77931 5.84842 0.396205 -3.56862 5.84842 0.396204 -3.56863 -8.30768e-012 -9.0191e-006 -5.27751e-005 -26.999 38.4307 15.4282 -178.848 -8.95695 -82.6398 -17.9149 -41.7417 33.7241 -82.9858 0 -0 -76.729 -43.7572 -77.9572 -179.557 32.6211 89.1789 -119.575 44.5621 64.1678 -92.2957 -6.36111e-015 1.59028e-015 -46.8979 29.1109 42.9443 0.348251 8.67869 174.788 -39.1234 -3.97569e-016 -7.95139e-016 16.2867 1.90038 1.39735 90 2.48481e-017 -3.97569e-016 6.06086 -15.0573 160.426 -52.728 0 3.18056e-015 12.0891 -2.89669 11.8637 90 1.59028e-015 -6.36111e-015 
109.404 85.3883 -41.681 -7.43965 -74.0982 -92.0646 2.97456 0.294203 -1.66541 5.9565 0.501954 -3.34375 5.9565 0.501954 -3.34376 -8.30708e-012 -9.0191e-006 -5.27751e-005 -29.8296 44.3553 17.8693 -178.688 -8.10823 -80.7744 -18.7044 -36.0504 37.0153 -82.6857 -1.59028e-015 -3.18055e-015 -75.4612 -44.6792 -76.4198 -179.439 30.2356 88.8869 -105.415 51.4601 57.0427 -106.669 0 -1.98785e-015 -42.6996 33.7732 43.0992 -0.702784 7.41195 174.494 -41.3447 7.95139e-016 -0 19.3625 2.32327 0.0799454 90 -6.95746e-016 3.97569e-016 5.98807 -12.2924 160.989 -56.9185 0 -0 12.5738 -5.70597 11.1639 90 0 -1.59028e-015 
109.352 85.1638 -41.5178 4.46847 -74.0422 -80.0035 2.95289 0.288836 -1.54497 5.91258 0.498084 -3.10268 5.91258 0.498083 -3.10269 -8.30748e-012 -9.0191e-006 -5.27751e-005 -31.5001 46.9894 19.4408 -178.617 -6.9127 -78.6562 -18.5573 -29.0843 40.7266 -80.4587 -3.97569e-015 3.18055e-015 -73.9582 -46.7801 -74.9825 -179.599 26.8752 89.1127 -79.9427 58.9972 39.2428 -121.717 -3.18055e-015 -3.57812e-015 -39.6619 42.3891 44.59 -1.82833 5.36837 174.398 -42.5966 0 -0 20.0913 3.12297 -1.83883 90 -4.47266e-016 -7.95139e-016 6.45466 -9.50868 162.292 -59.0272 -3.18056e-015 -1.59028e-015 11.7973 -9.04306 10.6707 90 0 -0 
